<svg xmlns="http://www.w3.org/2000/svg" width="980" height="432" font-family="sans-serif" font-size="12">
<rect width="100%" height="100%" fill="white"/>
<text x="10" y="24" font-size="15" font-weight="bold">KAA direct reflector field at the victim: incident power density (3-monitor mean) [dBm/m2]</text>
<line x1="330.0" y1="54" x2="330.0" y2="372" stroke="#ddd"/><text x="330.0" y="388" text-anchor="middle">-10</text>
<line x1="417.1" y1="54" x2="417.1" y2="372" stroke="#ddd"/><text x="417.1" y="388" text-anchor="middle">0</text>
<line x1="504.3" y1="54" x2="504.3" y2="372" stroke="#ddd"/><text x="504.3" y="388" text-anchor="middle">10</text>
<line x1="591.4" y1="54" x2="591.4" y2="372" stroke="#ddd"/><text x="591.4" y="388" text-anchor="middle">20</text>
<line x1="678.6" y1="54" x2="678.6" y2="372" stroke="#ddd"/><text x="678.6" y="388" text-anchor="middle">30</text>
<line x1="765.7" y1="54" x2="765.7" y2="372" stroke="#ddd"/><text x="765.7" y="388" text-anchor="middle">40</text>
<line x1="852.9" y1="54" x2="852.9" y2="372" stroke="#ddd"/><text x="852.9" y="388" text-anchor="middle">50</text>
<line x1="940.0" y1="54" x2="940.0" y2="372" stroke="#ddd"/><text x="940.0" y="388" text-anchor="middle">60</text>
<text x="324" y="76" text-anchor="end">KAA_1 > SBA_NADIR</text>
<rect x="402.5" y="64" width="14.7" height="10" fill="#1f5fa8"/>
<rect x="417.1" y="74" width="473.8" height="10" fill="#e08a1e"/>
<text x="421.1" y="73" font-size="10">-1.7</text>
<text x="324" y="102" text-anchor="end">KAA_1 > SBA_ZENITH</text>
<rect x="365.1" y="90" width="52.0" height="10" fill="#1f5fa8"/>
<rect x="417.1" y="100" width="153.4" height="10" fill="#e08a1e"/>
<text x="421.1" y="99" font-size="10">-6.0</text>
<text x="324" y="128" text-anchor="end">KAA_1 > GPSA_1</text>
<rect x="362.2" y="116" width="55.0" height="10" fill="#1f5fa8"/>
<rect x="417.1" y="126" width="146.3" height="10" fill="#e08a1e"/>
<text x="421.1" y="125" font-size="10">-6.3</text>
<text x="324" y="154" text-anchor="end">KAA_1 > GPSA_2</text>
<rect x="367.9" y="142" width="49.2" height="10" fill="#1f5fa8"/>
<rect x="417.1" y="152" width="113.0" height="10" fill="#e08a1e"/>
<text x="421.1" y="151" font-size="10">-5.6</text>
<text x="324" y="180" text-anchor="end">KAA_1 > SAR_ANT</text>
<rect x="417.1" y="168" width="36.4" height="10" fill="#1f5fa8"/>
<rect x="417.1" y="178" width="516.0" height="10" fill="#e08a1e"/>
<text x="457.5" y="177" font-size="10">4.2</text>
<text x="324" y="206" text-anchor="end">KAA_1 > ISL</text>
<rect x="373.5" y="194" width="43.6" height="10" fill="#1f5fa8"/>
<rect x="417.1" y="204" width="103.6" height="10" fill="#e08a1e"/>
<text x="421.1" y="203" font-size="10">-5.0</text>
<text x="324" y="232" text-anchor="end">KAA_2 > SBA_NADIR</text>
<rect x="398.4" y="220" width="18.7" height="10" fill="#1f5fa8"/>
<rect x="417.1" y="230" width="304.2" height="10" fill="#e08a1e"/>
<text x="421.1" y="229" font-size="10">-2.1</text>
<text x="324" y="258" text-anchor="end">KAA_2 > SBA_ZENITH</text>
<rect x="391.9" y="246" width="25.2" height="10" fill="#1f5fa8"/>
<rect x="417.1" y="256" width="284.2" height="10" fill="#e08a1e"/>
<text x="421.1" y="255" font-size="10">-2.9</text>
<text x="324" y="284" text-anchor="end">KAA_2 > GPSA_1</text>
<rect x="415.9" y="272" width="1.2" height="10" fill="#1f5fa8"/>
<rect x="417.1" y="282" width="347.2" height="10" fill="#e08a1e"/>
<text x="421.1" y="281" font-size="10">-0.1</text>
<text x="324" y="310" text-anchor="end">KAA_2 > GPSA_2</text>
<rect x="417.1" y="298" width="14.2" height="10" fill="#1f5fa8"/>
<rect x="417.1" y="308" width="305.4" height="10" fill="#e08a1e"/>
<text x="435.3" y="307" font-size="10">1.6</text>
<text x="324" y="336" text-anchor="end">KAA_2 > SAR_ANT</text>
<rect x="376.8" y="324" width="40.3" height="10" fill="#1f5fa8"/>
<rect x="417.1" y="334" width="192.9" height="10" fill="#e08a1e"/>
<text x="421.1" y="333" font-size="10">-4.6</text>
<text x="324" y="362" text-anchor="end">KAA_2 > ISL</text>
<rect x="394.1" y="350" width="23.1" height="10" fill="#1f5fa8"/>
<rect x="417.1" y="360" width="207.1" height="10" fill="#e08a1e"/>
<text x="421.1" y="359" font-size="10">-2.6</text>
<text x="635" y="418" text-anchor="middle">dBm/m2 (DIRECT_REFLECTOR_FIELD_ONLY; STRUCTURE_SCATTERING_NOT_MODELED; hemisphere steering assumption)</text>
<rect x="560" y="34" width="12" height="10" fill="#1f5fa8"/><text x="576" y="44">nominal gimbal reference</text>
<rect x="770" y="34" width="12" height="10" fill="#e08a1e"/><text x="786" y="44">max-coupling steering</text>
</svg>
